<svg width="78" height="161" viewBox="0 0 78 161" fill="none" xmlns="http://www.w3.org/2000/svg">
<path fill-rule="evenodd" clip-rule="evenodd" d="M72.0226 14.2371H0V15.912H72.0226V14.2371ZM72.0226 34.3364H0V36.0113H72.0226V34.3364ZM0 54.4357H72.0226V56.1107H0V54.4357ZM72.0226 74.535H0V76.21H72.0226V74.535ZM0 94.6344H72.0226V96.3093H0V94.6344Z" fill="black"/>
<path d="M53.5982 10.0497H51.9232V83.7472H53.5982V10.0497Z" fill="black"/>
<path d="M27.9073 91.6139C24.9531 87.2234 28.1183 80.9121 34.8706 77.5277C41.623 74.1434 49.5359 74.7837 52.49 79.1742C55.4441 83.5647 52.279 89.876 45.5267 93.3518C38.7743 96.7362 30.8614 96.0044 27.9073 91.6139V91.6139Z" fill="black"/>
</svg>
