<svg width="73" height="125" viewBox="0 0 73 125" fill="none" xmlns="http://www.w3.org/2000/svg">
<path fill-rule="evenodd" clip-rule="evenodd" d="M72.0226 14.237H0V15.912H72.0226V14.237ZM72.0226 34.3363H0V36.0113H72.0226V34.3363ZM0 54.4357H72.0226V56.1106H0V54.4357ZM72.0226 74.535H0V76.2099H72.0226V74.535ZM0 94.6343H72.0226V96.3092H0V94.6343Z" fill="black"/>
<path d="M18.1449 46.946V43.0341L35.4034 15.7273H38.2415V21.7869H36.3239L23.2841 42.4205V42.7273H46.5256V46.946H18.1449ZM36.6307 55V45.7571V43.9354V15.7273H41.1562V55H36.6307Z" fill="black"/>
<path d="M18.1449 86.946V83.0341L35.4034 55.7273H38.2415V61.7869H36.3239L23.2841 82.4205V82.7273H46.5256V86.946H18.1449ZM36.6307 95V85.7571V83.9354V55.7273H41.1562V95H36.6307Z" fill="black"/>
</svg>
